<mxfile host="app.diagrams.net" modified="2022-11-01T13:11:53.764Z" agent="5.0 (X11)" etag="PwfOJvWfRgaaht5PcAmZ" version="20.5.1" type="github">
  <diagram id="2UIXf6bV59TltNgde1Fc" name="Page-1">
    <mxGraphModel dx="1240" dy="640" grid="1" gridSize="10" guides="1" tooltips="1" connect="1" arrows="1" fold="1" page="1" pageScale="1" pageWidth="850" pageHeight="1100" math="0" shadow="0">
      <root>
        <mxCell id="0" />
        <mxCell id="1" parent="0" />
        <mxCell id="s_d1kRkf_ppk0RjO4FDy-3" value="" style="rounded=0;whiteSpace=wrap;html=1;" vertex="1" parent="1">
          <mxGeometry x="140" y="150" width="640" height="800" as="geometry" />
        </mxCell>
        <mxCell id="s_d1kRkf_ppk0RjO4FDy-4" value="Banking app" style="text;html=1;align=center;verticalAlign=middle;resizable=0;points=[];autosize=1;strokeColor=none;fillColor=none;" vertex="1" parent="1">
          <mxGeometry x="380" y="190" width="90" height="30" as="geometry" />
        </mxCell>
        <mxCell id="s_d1kRkf_ppk0RjO4FDy-5" value="CUSTOMER" style="shape=umlActor;verticalLabelPosition=bottom;verticalAlign=top;html=1;outlineConnect=0;" vertex="1" parent="1">
          <mxGeometry x="40" y="250" width="30" height="60" as="geometry" />
        </mxCell>
        <mxCell id="s_d1kRkf_ppk0RjO4FDy-6" value="&lt;div&gt;TH BANK&lt;/div&gt;&lt;div&gt;&lt;br&gt;&lt;/div&gt;" style="shape=umlActor;verticalLabelPosition=bottom;verticalAlign=top;html=1;outlineConnect=0;" vertex="1" parent="1">
          <mxGeometry x="840" y="360" width="30" height="60" as="geometry" />
        </mxCell>
        <mxCell id="s_d1kRkf_ppk0RjO4FDy-7" value="log in " style="ellipse;whiteSpace=wrap;html=1;" vertex="1" parent="1">
          <mxGeometry x="320" y="280" width="120" height="80" as="geometry" />
        </mxCell>
        <mxCell id="s_d1kRkf_ppk0RjO4FDy-11" value="" style="endArrow=none;html=1;rounded=0;entryX=1;entryY=0.5;entryDx=0;entryDy=0;" edge="1" parent="1" source="s_d1kRkf_ppk0RjO4FDy-6" target="s_d1kRkf_ppk0RjO4FDy-12">
          <mxGeometry width="50" height="50" relative="1" as="geometry">
            <mxPoint x="50" y="550" as="sourcePoint" />
            <mxPoint x="100" y="500" as="targetPoint" />
          </mxGeometry>
        </mxCell>
        <mxCell id="s_d1kRkf_ppk0RjO4FDy-12" value="check balance" style="ellipse;whiteSpace=wrap;html=1;" vertex="1" parent="1">
          <mxGeometry x="320" y="360" width="120" height="80" as="geometry" />
        </mxCell>
        <mxCell id="s_d1kRkf_ppk0RjO4FDy-13" value="transfer funds " style="ellipse;whiteSpace=wrap;html=1;" vertex="1" parent="1">
          <mxGeometry x="320" y="450" width="120" height="80" as="geometry" />
        </mxCell>
        <mxCell id="s_d1kRkf_ppk0RjO4FDy-14" value="make payment " style="ellipse;whiteSpace=wrap;html=1;" vertex="1" parent="1">
          <mxGeometry x="320" y="540" width="120" height="80" as="geometry" />
        </mxCell>
        <mxCell id="s_d1kRkf_ppk0RjO4FDy-18" value="" style="endArrow=none;html=1;rounded=0;exitX=1;exitY=1;exitDx=0;exitDy=0;exitPerimeter=0;" edge="1" parent="1" source="s_d1kRkf_ppk0RjO4FDy-5" target="s_d1kRkf_ppk0RjO4FDy-7">
          <mxGeometry width="50" height="50" relative="1" as="geometry">
            <mxPoint x="90" y="310" as="sourcePoint" />
            <mxPoint x="140" y="260" as="targetPoint" />
          </mxGeometry>
        </mxCell>
        <mxCell id="s_d1kRkf_ppk0RjO4FDy-19" value="" style="endArrow=none;html=1;rounded=0;exitX=1;exitY=1;exitDx=0;exitDy=0;exitPerimeter=0;entryX=0;entryY=0.5;entryDx=0;entryDy=0;" edge="1" parent="1" target="s_d1kRkf_ppk0RjO4FDy-13">
          <mxGeometry width="50" height="50" relative="1" as="geometry">
            <mxPoint x="80" y="320.0000000000001" as="sourcePoint" />
            <mxPoint x="330.070116235084" y="328.0667779430672" as="targetPoint" />
          </mxGeometry>
        </mxCell>
        <mxCell id="s_d1kRkf_ppk0RjO4FDy-20" value="" style="endArrow=none;html=1;rounded=0;exitX=1;exitY=1;exitDx=0;exitDy=0;exitPerimeter=0;entryX=-0.012;entryY=0.625;entryDx=0;entryDy=0;entryPerimeter=0;" edge="1" parent="1" target="s_d1kRkf_ppk0RjO4FDy-12">
          <mxGeometry width="50" height="50" relative="1" as="geometry">
            <mxPoint x="90" y="330.0000000000001" as="sourcePoint" />
            <mxPoint x="340.070116235084" y="338.0667779430672" as="targetPoint" />
          </mxGeometry>
        </mxCell>
        <mxCell id="s_d1kRkf_ppk0RjO4FDy-21" value="" style="endArrow=none;html=1;rounded=0;exitX=1;exitY=1;exitDx=0;exitDy=0;exitPerimeter=0;entryX=0;entryY=0.5;entryDx=0;entryDy=0;" edge="1" parent="1" target="s_d1kRkf_ppk0RjO4FDy-14">
          <mxGeometry width="50" height="50" relative="1" as="geometry">
            <mxPoint x="90" y="330.0000000000001" as="sourcePoint" />
            <mxPoint x="330" y="500" as="targetPoint" />
          </mxGeometry>
        </mxCell>
        <mxCell id="s_d1kRkf_ppk0RjO4FDy-22" value="" style="endArrow=none;html=1;rounded=0;entryX=1;entryY=0.5;entryDx=0;entryDy=0;" edge="1" parent="1" target="s_d1kRkf_ppk0RjO4FDy-13">
          <mxGeometry width="50" height="50" relative="1" as="geometry">
            <mxPoint x="850" y="400.3614457831327" as="sourcePoint" />
            <mxPoint x="450" y="410" as="targetPoint" />
          </mxGeometry>
        </mxCell>
        <mxCell id="s_d1kRkf_ppk0RjO4FDy-23" value="" style="endArrow=none;html=1;rounded=0;entryX=1;entryY=0.5;entryDx=0;entryDy=0;" edge="1" parent="1" target="s_d1kRkf_ppk0RjO4FDy-14">
          <mxGeometry width="50" height="50" relative="1" as="geometry">
            <mxPoint x="860" y="410.3614457831327" as="sourcePoint" />
            <mxPoint x="450" y="500" as="targetPoint" />
          </mxGeometry>
        </mxCell>
        <mxCell id="s_d1kRkf_ppk0RjO4FDy-25" value="verify password" style="ellipse;whiteSpace=wrap;html=1;" vertex="1" parent="1">
          <mxGeometry x="540" y="220" width="120" height="80" as="geometry" />
        </mxCell>
        <mxCell id="s_d1kRkf_ppk0RjO4FDy-26" value="display login error" style="ellipse;whiteSpace=wrap;html=1;" vertex="1" parent="1">
          <mxGeometry x="540" y="300" width="120" height="80" as="geometry" />
        </mxCell>
        <mxCell id="s_d1kRkf_ppk0RjO4FDy-27" value="verify sufficient funds " style="ellipse;whiteSpace=wrap;html=1;" vertex="1" parent="1">
          <mxGeometry x="570" y="530" width="120" height="80" as="geometry" />
        </mxCell>
        <mxCell id="s_d1kRkf_ppk0RjO4FDy-30" value="" style="endArrow=none;dashed=1;html=1;dashPattern=1 3;strokeWidth=2;rounded=0;entryX=0;entryY=0.5;entryDx=0;entryDy=0;" edge="1" parent="1" target="s_d1kRkf_ppk0RjO4FDy-25">
          <mxGeometry width="50" height="50" relative="1" as="geometry">
            <mxPoint x="440" y="320" as="sourcePoint" />
            <mxPoint x="490" y="270" as="targetPoint" />
          </mxGeometry>
        </mxCell>
        <mxCell id="s_d1kRkf_ppk0RjO4FDy-31" value="&lt;div style=&quot;font-size: 19px;&quot;&gt;&lt;font style=&quot;font-size: 19px;&quot;&gt;&amp;lt;&amp;lt;include&amp;gt;&amp;gt;&lt;/font&gt;&lt;/div&gt;&lt;div style=&quot;font-size: 19px;&quot;&gt;&lt;font style=&quot;font-size: 19px;&quot;&gt;&lt;br&gt;&lt;/font&gt;&lt;/div&gt;" style="text;html=1;align=center;verticalAlign=middle;resizable=0;points=[];autosize=1;strokeColor=none;fillColor=none;" vertex="1" parent="1">
          <mxGeometry x="425" y="240" width="130" height="60" as="geometry" />
        </mxCell>
      </root>
    </mxGraphModel>
  </diagram>
</mxfile>
